<?xml version="1.0" encoding="utf-8"?>
<!-- Generator: Adobe Illustrator 25.1.0, SVG Export Plug-In . SVG Version: 6.00 Build 0)  -->
<svg version="1.1" id="Layer_1" xmlns="http://www.w3.org/2000/svg" xmlns:xlink="http://www.w3.org/1999/xlink" x="0px" y="0px"
	 viewBox="0 0 253.98 629.4" style="enable-background:new 0 0 253.98 629.4;" xml:space="preserve">
<style type="text/css">
	.st0{fill-rule:evenodd;clip-rule:evenodd;fill:#F1C18E;}
</style>
<path class="st0" d="M244.85,332.28c-0.97-1.64-1.87-3.32-2.86-4.96c-1.32-2.17-2.01-4.57-2.55-7.04c-0.67-3.09-1.4-6.16-2.12-9.24
	c-0.59-2.53-1.79-4.67-3.56-6.65c-2.46-2.77-4.59-5.84-6.8-8.83c-0.43-0.57-0.67-1.35-0.75-2.06c-0.2-1.47-0.21-2.97-0.35-4.45
	c-0.4-3.93-0.93-7.85-1.22-11.79c-0.47-6.63-0.76-13.28-1.17-19.92c-0.34-5.38-0.64-10.76-1.11-16.13
	c-0.74-8.41-2.42-16.64-5.7-24.49c-0.23-0.56-0.27-1.26-0.22-1.88c0.13-1.57,0.45-3.13,0.53-4.7c0.25-4.89,0.08-9.79-0.61-14.62
	c-1.54-10.65-4.35-21.18-7.6-31.41c-0.28-0.91-0.47-1.91-0.45-2.86c0.06-1.52,0.39-3.03,0.51-4.55c0.13-1.66,0.03-3.35,0.24-4.99
	c0.5-3.73,0.37-7.43-0.28-11.11c-1.04-5.99-3.75-12.55-7.27-18.5c-3.4-5.76-7.77-9.01-12.63-12.17c-2.28-1.47-4.65-2.5-7.27-3.21
	c-2.66-0.72-5.46-0.74-8.05-1.9c-1.12-0.5-2.33-0.78-3.42-1.36c-4.56-2.4-9.04-4.96-13.62-7.3c-3.34-1.71-6.78-3.18-10.21-4.64
	c-1.21-0.52-1.32-0.41-1.44-1.63c-0.67-6.98,0.8-14.33,0.8-14.56c0-0.05-0.02-0.08-0.03-0.12c0.06-0.08,0.12-0.16,0.18-0.24
	c0.96-1.54,1.69-3.16,1.96-4.97c0.19-1.27,0.38-2.54,0.56-3.82c1.43,0.21,2.86,0.09,3.57-0.93c0.53-0.77,0.71-1.65,1.15-2.49
	c0.45-0.88,1.23-1.57,1.86-2.31c1.32-1.57,1.62-3.8,1.65-5.9c0.01-1.89,0.36-6.37-2.14-6.86c-0.54-0.1-1.25,0.33-1.89,0.85
	c0-0.03,0.01-0.06,0.01-0.09c0.24-1.87,0.2-3.76,0.65-5.61c1.61-6.65,0.6-13.22-2.32-18.75c-3.77-7.13-10.76-12.52-19.5-14.1
	c-20.81-3.76-38.21,11.02-35.66,32.51c0.22,1.88,0.86,3.67,1.41,5.48c0.09,0.23,0.18,0.45,0.27,0.68c-0.68-0.57-1.46-1.08-2.04-0.97
	c-2.5,0.49-2.16,4.97-2.14,6.86c0.02,2.1,0.33,4.32,1.64,5.9c0.62,0.74,1.41,1.44,1.86,2.31c0.44,0.84,0.62,1.72,1.15,2.49
	c0.86,1.24,2.76,1.16,4.47,0.77c0.13,0.63,0.19,1.28,0.22,1.92c0.13,2.24,0.65,4.35,1.84,6.25c0.51,0.8,1.07,1.59,1.6,2.37
	c0.31,3.52,0.98,10.67,1.15,12.13c0.22,1.92-0.62,2.53-2.48,3.41c-0.17,0.07-0.35,0.15-0.52,0.23c-3.05,1.5-6.14,2.95-9.15,4.58
	c-4.11,2.23-8.15,4.62-12.23,6.97c-2.07,1.19-4.16,2.3-6.46,2.7c-0.96,0.17-1.95,0.27-2.9,0.55c-2.07,0.64-4.3,0.99-6.13,2.05
	c-6.22,3.63-11.69,7.19-15.83,14.62c-4.9,8.79-8.51,18.94-7.06,29.13c0.03,0.27,0.02,0.56-0.01,0.83c-0.16,1.82,0.14,3.6,0.48,5.38
	c0.34,1.78,0.52,3.61-0.05,5.38c-2.95,9.22-5.55,18.66-7.18,28.22c-1.29,7.53-1.85,15.13-0.68,22.76c0.14,0.92-0.02,1.73-0.36,2.56
	c-1.68,4.1-2.99,8.31-3.88,12.65c-1.71,8.37-2.3,16.85-2.74,25.35c-0.2,3.9-0.28,7.8-0.53,11.7c-0.31,4.83-0.73,9.64-1.13,14.46
	c-0.26,3.15-0.72,6.29-0.84,9.44c-0.09,2.46-0.59,4.63-2.21,6.57c-2.18,2.6-4.18,5.35-6.35,7.95c-0.91,1.09-1.78,2.16-2.13,3.54
	c-0.95,3.74-1.9,7.47-2.78,11.23c-0.49,2.08-0.91,4.19-1.95,6.09c-1.13,2.08-2.33,4.12-3.52,6.17c-0.72,1.22-0.37,2.18,1.03,2.49
	c2.16,0.46,4.29,0.48,6.06-1.12c1.09-0.99,2.11-2.07,3.14-3.14c0.33-0.35,0.6-0.77,0.89-1.16c0.09,0.04,0.18,0.08,0.27,0.12
	c-0.04,0.49-0.06,0.97-0.12,1.47c-0.42,3.78-0.9,7.57-1.28,11.35c-0.33,3.29-0.58,6.57-0.81,9.87c-0.1,1.29-0.07,2.6-0.05,3.89
	c0.01,0.61,0.41,1.03,0.98,1.23c0.53,0.18,0.82-0.2,1.17-0.53c2.06-1.92,3.05-4.41,3.73-7.04c1.22-4.77,2.33-9.57,3.51-14.36
	c0.08-0.3,0.28-0.58,0.42-0.87c0.3,0.32,0.35,0.58,0.34,0.83c-0.04,1.21-0.1,2.42-0.16,3.63c-0.15,3.02-0.32,6.04-0.46,9.05
	c-0.18,3.66-0.22,7.33,0.28,10.98c0.34,0.14,0.67,0.21,0.93,0.38c0.76,0.48,1.45,0.33,1.99-0.3c0.34-0.41,0.62-0.9,0.78-1.41
	c1.31-3.95,1.79-8.07,2.5-12.14c0.39-2.28,0.66-4.6,0.98-6.9c0.14,0.36,0.23,0.72,0.23,1.08c0.03,4.04,0.02,8.09,0.1,12.14
	c0.03,1.43,0.23,2.86,0.44,4.28c0.13,0.9,0.73,1.39,1.57,1.5c0.59,0.08,1.43-0.46,1.73-1.18c0.16-0.38,0.22-0.8,0.28-1.21
	c0.3-1.94,0.58-3.89,0.92-6.14c0.57,1.41,1,2.53,1.47,3.63c0.65,1.54,0.67,1.52,2.35,1.28c0.17-0.03,0.34-0.03,0.64-0.06
	c0.15-0.75,0.42-1.47,0.43-2.18c0.04-2-0.05-4-0.07-6c-0.04-4.8-0.57-9.61,0.62-14.41c0.67-2.72,0.54-5.63,0.74-8.45
	c0.07-0.93-0.03-1.87,0.06-2.79c0.36-3.7,0.61-7.4,0.45-11.12c-0.15-3.55-0.41-7.08-1.51-10.46c-0.42-1.26-0.35-2.3,0.08-3.46
	c1.6-4.32,3.33-8.59,4.71-12.98c3.26-10.37,6.41-20.79,9.54-31.2c1.97-6.54,3.22-13.18,2.97-20.06c-0.06-1.75,0.2-3.51,0.25-5.28
	c0.06-2.14,0.1-4.27,0.03-6.4c-0.04-1.29,0.14-2.45,0.8-3.6c1.92-3.35,3.35-6.94,4.68-10.57c1.41-3.85,2.52-7.78,3.45-11.76
	c0.11-0.5,0.14-1.07,0.69-1.51c0.68,1.53,1.32,2.96,1.94,4.41c0.12,0.29,0.11,0.64,0.15,0.96c0.59,5.54,1.15,11.09,1.74,16.64
	c0.33,3.1,0.86,6.18,1.04,9.27c0.2,3.53,0.08,7.07,0.15,10.6c0.09,4.37,0.18,8.74,0.39,13.1c0.09,1.7,0.51,3.39,0.85,5.07
	c0.25,1.24,0.42,2.43-0.03,3.69c-0.46,1.26-0.78,2.59-1.06,3.89c-1.19,5.58-2.11,11.16-0.74,16.85c0.13,0.57,0.11,1.22-0.01,1.8
	c-0.65,3.38-1.37,6.75-2.01,10.12c-2.07,10.99-4.17,22.01-6.08,33.04c-0.94,5.43-1.55,10.95-2.1,16.45
	c-0.74,7.5-1.04,15.03-0.88,22.57c0.1,4.65,0.28,9.29,0.59,13.93c0.17,2.49,0.78,4.96,1.03,7.44c0.73,7.22,2.09,14.35,2.7,21.57
	c0.41,4.85,0.63,9.63-0.22,14.45c-1.16,6.56-1.54,13.2-1.29,19.85c0.05,1.42-0.12,2.74-0.61,4.08c-2.14,5.89-3.28,12.1-3.87,18.23
	c-2.22,23.33-1.62,46.59-0.05,70.16c0,0,0.74,18.32,0.74,22.47c0,4.15-1.28,10.15-3.19,14.08c-5.41,11.14-14.71,21.34-22.7,31.2
	c-4.15,5.13-4.76,4.33-6.8,5.95c-1.9,1.5-2.16,2.3-3.23,4c-1.02,1.62-0.43,2.8-0.43,2.8c-1.22,3.3,1.07,3.72,1.07,3.72
	c1.47,2.69,3.91,1.84,3.91,1.84c3.42,3.42,5.46,0.69,5.46,0.69c3.91,4.52,7.94,3.54,12.58-0.48c4.64-4.03,4.21-2.32,6.72-3.31
	c10.81-4.23,11.32-14.9,20.65-20.16c10.3-5.8,12.94-12.09,11.73-16.12c-1.22-4.03-1.95-9.78-1.95-9.78c1.1-0.73,1.46-3.05,0.85-5.37
	c-1.96-7.43-1.22-8.31,0.28-23.66c2.25-13.96,4.15-29.82,10.78-41.9c2.37-4.32,3.93-9.32,4.5-14.42c0.41-3.8,0.39-7.61,0.28-11.42
	c-0.13-4.7-0.66-9.36-1.34-14.01c-0.5-3.45-1-6.9-1.51-10.34c-0.11-0.76-0.01-1.44,0.45-2.11c1.29-1.91,2.12-4.03,2.73-6.23
	c1.18-4.32,1.86-8.72,1.89-13.21c0.02-2.42,0.09-4.84,0.3-7.24c0.15-1.83,0.2-3.7,1.1-5.42c3.9-7.47,7.02-15.28,9.43-23.36
	c2.34-7.79,4.06-15.75,5.86-23.68c1.5-6.65,3.02-13.31,4.52-19.94c0.1,0.64,0.18,1.31,0.34,1.97c0.47,1.99,0.98,3.97,1.48,5.95
	c1.65,6.67,3.36,13.36,4.93,20.04c3.18,13.46,7.65,26.73,14.28,38.93c-0.02,0-0.02,0.01-0.05,0.02c0.21,0.4,0.39,0.82,0.55,1.24
	c0.05,0.23,0.12,0.45,0.15,0.68c0.49,4.43,0.92,7.44,0.97,8.74c0.01,0,0.01,0,0.02,0c0.01,0.69,0.04,1.37,0.04,2.07
	c0.02,3.33,0.42,7.82,1.9,13.21c0.6,2.2,1.44,4.33,2.73,6.23c0.35,0.52,1.66,2.76-0.22,13.81c-0.79,4.63-0.89,9.34-0.86,14.04
	c0.02,3.82,0.12,7.62,0.67,11.41c0.74,5.07,2.5,10.03,4.98,14.26c6.81,11.58,8.24,27.37,10.78,40.95c2.02,15.29,2.45,15.53,0.75,23
	c-0.53,2.34,0.34,5.23,1.46,5.92c0,0-0.52,3.82-1.11,7.99c-1.02,7.4,0.15,11.52,10.97,17.89c9.36,5.51,9.66,16.3,20.85,20.22
	c2.54,0.89,2.38-0.44,6.82,3.82c4.66,4.46,8.51,4.4,12.26-0.25c0,0,2.25,2.35,5.36-0.62c0,0,2.91,0.66,3.96-1.93
	c0,0,2.68-1.02,0.8-3.64c0,0,1.85-1.07-2.29-5.92c-1.18-1.38-3.22-0.82-7.52-6.45c-6.16-8.05-12.22-16.25-18.05-24.48
	c-2.73-3.86-5.59-7.03-6.72-11.39c-1.13-4.36-1.68-4.91-1.75-8.99c-0.18-10.6,0.3-21.55,0.56-32.32
	c-0.13-20.53,0.12-40.77-1.96-61.13c-0.43-4.25-3.58-15.77-4.12-17.18c-0.69-2.17-1.34-4.42-1.31-5.15
	c0.25-6.65-0.13-13.29-1.29-19.85c-0.82-4.67-1.09-9.92-0.76-14.62c0.17-2.3,0.29-4.63,0.49-6.94c0.24-2.68,0.66-5.35,0.97-8.03
	c0.38-3.09,0.76-6.18,1.09-9.28c0.32-2.9,0.74-5.82,0.83-8.74c0.15-4.6,0.07-9.2,0.05-13.8c-0.03-7.68-0.6-15.34-1.68-22.93
	c-0.9-6.4-1.85-12.8-3.02-19.14c-1.22-6.57-2.7-13.11-4.1-19.65c-1.29-6.04-2.65-12.08-3.94-18.12c-0.1-0.48-0.11-1.03-0.01-1.51
	c0.76-3.8,0.64-7.6-0.06-11.36c-0.53-2.93-1.28-5.81-2-8.69c-0.29-1.2-0.36-2.36-0.14-3.58c0.27-1.56,0.62-3.13,0.66-4.7
	c0.08-3.29,0.01-6.6-0.02-9.9c-0.04-2.75-0.22-5.49-0.13-8.23c0.14-4.22,0.4-8.45,0.73-12.67c0.5-6.4,1.1-12.79,1.67-19.17
	c0.08-0.87,1.4-3.75,2.05-4.49c0.13,0.43,0.25,0.83,0.35,1.23c1.81,7.63,4.38,14.99,8.15,21.89c0.39,0.72,0.57,1.45,0.53,2.27
	c-0.06,1.2-0.15,2.41-0.11,3.61c0.1,3.07,0.46,6.13,0.38,9.19c-0.15,6.35,0.9,12.51,2.65,18.57c1.3,4.46,2.73,8.88,4.07,13.33
	c2.41,8.02,4.55,16.11,7.54,23.94c1.12,2.91,2.13,5.86,3.22,8.77c0.29,0.77,0.34,1.47-0.02,2.27c-0.35,0.79-0.54,1.68-0.71,2.54
	c-0.85,4.49-1.22,9.02-0.9,13.59c0.17,2.28,0.38,4.54,0.43,6.82c0.1,4.46,0.1,8.92,1.44,13.24c0.05,0.18,0.07,0.37,0.07,0.55
	c0,3.44,0,6.89-0.04,10.33c-0.02,2.13-0.18,4.27-0.17,6.41c0,0.8,0.27,1.61,0.42,2.37c0.5,0.07,0.81,0.11,1.12,0.16
	c1.13,0.2,1.2,0.17,1.68-0.9c0.34-0.77,0.67-1.53,0.99-2.3c0.19-0.48,0.35-0.96,0.52-1.44c0.51,2.01,0.79,3.93,1.08,5.86
	c0.06,0.36,0.11,0.74,0.25,1.08c0.29,0.69,1.17,1.32,1.69,1.27c0.79-0.09,1.51-0.71,1.65-1.6c0.2-1.27,0.42-2.57,0.45-3.86
	c0.07-4.13,0.03-8.28,0.07-12.42c0-0.36,0.09-0.73,0.16-1.28c0.59,3.75,1.07,7.3,1.71,10.81c0.52,2.83,1.19,5.64,1.86,8.43
	c0.43,1.78,1.46,2.21,3.07,1.45c0.2-0.1,0.41-0.16,0.65-0.25c0.97-8.15-0.43-16.22-0.28-24.5c0.64,0.4,0.66,0.86,0.76,1.29
	c0.46,1.99,0.88,4,1.39,5.97c0.6,2.35,1.35,4.65,1.86,7.01c0.65,3.01,1.64,5.8,3.88,8.01c0.34,0.34,0.6,0.76,1.15,0.59
	c0.57-0.19,0.94-0.6,1.03-1.21c0.04-0.22,0.04-0.47,0.03-0.7c-0.23-3.7-0.36-7.42-0.69-11.12c-0.46-5.08-1.06-10.16-1.62-15.33
	c0.4,0.52,0.74,1,1.12,1.45c0.66,0.79,1.3,1.58,2.02,2.3c1.98,2,4.35,2.72,7.13,2.11C245.13,334.51,245.59,333.5,244.85,332.28z"/>
</svg>
